<svg width="20" height="22" viewBox="0 0 20 22" fill="none" xmlns="http://www.w3.org/2000/svg">
<path d="M0 11.6539H6V9.65391H0V0.499914C1.48755e-05 0.413029 0.0226703 0.327647 0.0657334 0.252184C0.108797 0.176722 0.170781 0.113783 0.245577 0.0695715C0.320372 0.0253602 0.405398 0.00140242 0.492273 5.97216e-05C0.579148 -0.00128298 0.664873 0.0200357 0.741 0.0619144L19.203 10.2159C19.2814 10.2591 19.3468 10.3225 19.3923 10.3995C19.4378 10.4766 19.4618 10.5644 19.4618 10.6539C19.4618 10.7434 19.4378 10.8313 19.3923 10.9083C19.3468 10.9853 19.2814 11.0488 19.203 11.0919L0.741 21.2459C0.664873 21.2878 0.579148 21.3091 0.492273 21.3078C0.405398 21.3064 0.320372 21.2825 0.245577 21.2383C0.170781 21.194 0.108797 21.1311 0.0657334 21.0556C0.0226703 20.9802 1.48755e-05 20.8948 0 20.8079V11.6539Z" fill="white"/>
</svg>
